<svg xmlns="http://www.w3.org/2000/svg" xmlns:xlink="http://www.w3.org/1999/xlink" width="1080" zoomAndPan="magnify" viewBox="0 0 810 809.999993" height="1080" preserveAspectRatio="xMidYMid meet" version="1.0"><defs><clipPath id="e0ad8cd6f3"><path d="M 29.964844 29.964844 L 779.671875 29.964844 L 779.671875 779.671875 L 29.964844 779.671875 Z M 29.964844 29.964844 " clip-rule="nonzero"/></clipPath><clipPath id="661b3ece05"><path d="M 187.070312 286 L 623 286 L 623 582.757812 L 187.070312 582.757812 Z M 187.070312 286 " clip-rule="nonzero"/></clipPath></defs><g clip-path="url(#e0ad8cd6f3)"><path fill="#d6bb8a" d="M 404.816406 779.671875 C 197.722656 779.671875 29.964844 610.757812 29.964844 404.816406 C 29.964844 198.878906 197.722656 29.964844 404.816406 29.964844 C 611.914062 29.964844 779.671875 197.722656 779.671875 404.816406 C 779.671875 611.914062 610.757812 779.671875 404.816406 779.671875 Z M 404.816406 53.101562 C 210.449219 53.101562 53.101562 210.449219 53.101562 404.816406 C 53.101562 599.1875 210.449219 756.535156 404.816406 756.535156 C 599.1875 756.535156 756.535156 599.1875 756.535156 404.816406 C 756.535156 210.449219 598.03125 53.101562 404.816406 53.101562 Z M 404.816406 53.101562 " fill-opacity="1" fill-rule="nonzero"/></g><g clip-path="url(#661b3ece05)"><path fill="#d6bb8a" d="M 237.308594 288 C 237.125 365.898438 237.183594 443.792969 237.183594 521.6875 L 237.183594 537.835938 C 293.128906 481.828125 348.140625 426.765625 404.421875 370.433594 C 461.609375 427.40625 516.621094 482.289062 572.988281 538.476562 L 572.988281 527.589844 C 573.015625 447.398438 573.113281 367.164062 572.890625 286.972656 L 622.761719 286.972656 C 622.609375 328.042969 622.636719 369.125 622.636719 410.226562 C 622.636719 475.507812 622.539062 540.804688 622.789062 606.085938 L 571.46875 606.085938 L 404.671875 439.949219 L 240.21875 607.144531 L 187.65625 607.144531 C 187.628906 605.386719 187.601562 603.632812 187.601562 601.878906 C 187.601562 497.253906 187.628906 392.628906 187.476562 287.988281 L 237.308594 287.988281 Z M 237.308594 288 " fill-opacity="1" fill-rule="nonzero"/></g><path fill="#d6bb8a" d="M 274.320312 439.113281 C 274.320312 442.066406 274.65625 445.015625 274.90625 449.347656 C 277.59375 447.121094 279.210938 445.976562 280.605469 444.585938 C 319.179688 406.019531 357.78125 367.484375 404.6875 319.828125 L 404.6875 248.710938 C 371.867188 282.375 348.617188 306.042969 325.363281 329.683594 C 324.683594 329.265625 323.984375 328.863281 323.304688 328.472656 C 323.304688 311.597656 322.71875 294.710938 323.441406 277.894531 C 324.390625 255.910156 332.984375 236.890625 349.324219 222.007812 C 375.140625 198.507812 405.273438 192.96875 437.019531 206.445312 C 469.453125 220.214844 486.308594 246.46875 486.867188 281.890625 C 487.421875 316.929688 486.90625 352.003906 487.132812 387.058594 L 535.695312 434.910156 C 535.695312 382.464844 535.667969 329.992188 535.667969 277.515625 C 535.667969 217.875 489.652344 163.160156 430.78125 152.746094 C 346.414062 137.820312 273.515625 198.898438 273.667969 284.449219 C 273.765625 336.003906 274.070312 387.558594 274.320312 439.113281 Z M 274.320312 439.113281 " fill-opacity="1" fill-rule="nonzero"/></svg>